HIERARCHY
ROOT ui
{
	 OFFSET 0 0 0
	 CHANNELS 3 XPosition YPosition Z Position
	 EndSite
	 {
	 OFFSET 0 -1 0
	 }
}
ROOT li
{
	 OFFSET 0 0 0
	 CHANNELS 3 XPosition YPosition Z Position
	 EndSite
	 {
	 OFFSET 0 -1 0
	 }
}
ROOT ul
{
	 OFFSET 0 0 0
	 CHANNELS 3 XPosition YPosition Z Position
	 EndSite
	 {
	 OFFSET 0 -1 0
	 }
}
ROOT ll
{
	 OFFSET 0 0 0
	 CHANNELS 3 XPosition YPosition Z Position
	 EndSite
	 {
	 OFFSET 0 -1 0
	 }
}
ROOT tt
{
	 OFFSET 0 0 0
	 CHANNELS 3 XPosition YPosition Z Position
	 EndSite
	 {
	 OFFSET 0 -1 0
	 }
}
ROOT tb
{
	 OFFSET 0 0 0
	 CHANNELS 3 XPosition YPosition Z Position
	 EndSite
	 {
	 OFFSET 0 -1 0
	 }
}
ROOT td
{
	 OFFSET 0 0 0
	 CHANNELS 3 XPosition YPosition Z Position
	 EndSite
	 {
	 OFFSET 0 -1 0
	 }
}
ROOT v
{
	 OFFSET 0 0 0
	 CHANNELS 3 XPosition YPosition Z Position
	 EndSite
	 {
	 OFFSET 0 -1 0
	 }
}
ROOT bn
{
	 OFFSET 0 0 0
	 CHANNELS 3 XPosition YPosition Z Position
	 EndSite
	 {
	 OFFSET 0 -1 0
	 }
}
MOTION
Frames: 10
Frame Time: 0.002
-0.06581230163574218	0.0014689209461212157	0		0.4653662414550781	-2.436615234375	0		-0.9528966674804688	0.3167947082519531	0		-0.490287841796875	-2.60866845703125	0		1.753140380859375	-0.9726173706054687	0		3.26880859375	-0.37479290771484375	0		4.52020849609375	-0.12450749206542969	0		5.89446728515625	0.3057406921386719	0		-0.4190175476074219	5.85103515625	0		
0.015858928680419923	0.002273897886276245	0		0.5038873291015625	-2.446416748046875	0		-0.936281982421875	0.31122808837890625	0		-0.5084953918457031	-2.588916748046875	0		1.7427586669921875	-0.9749847412109375	0		3.296474609375	-0.3735475463867188	0		4.5308525390625	-0.12612741088867188	0		5.9135380859375	0.31992950439453127	0		-0.45130880737304685	5.84391796875	0		
-0.05350566864013672	0.01051883602142334	0		0.48347479248046876	-2.43664599609375	0		-0.9357168579101562	0.31083935546875	0		-0.466773193359375	-2.564703857421875	0		1.763279541015625	-0.9766323852539063	0		3.265070068359375	-0.368746826171875	0		4.5264814453125	-0.11861363220214843	0		5.91030126953125	0.30172564697265625	0		-0.41753329467773437	5.85020556640625	0		
0.01687208366394043	0.0014699330329895018	0		0.5238317260742188	-2.439428955078125	0		-0.9552403564453125	0.3116688537597656	0		-0.5062372741699219	-2.547701171875	0		1.7496669921875	-0.9809463500976563	0		3.2584296875	-0.3781750793457031	0		4.519830078125	-0.13008242797851563	0		5.89565283203125	0.30279425048828124	0		-0.4519249267578125	5.84616015625	0		
-0.056728034973144534	0.00580562686920166	0		0.47114898681640627	-2.4343115234375	0		-0.9598984375	0.3083866271972656	0		-0.4738330078125	-2.53335205078125	0		1.779873779296875	-0.9936611938476563	0		3.25275537109375	-0.3806051940917969	0		4.51018408203125	-0.13052180480957032	0		5.8916884765625	0.31744793701171875	0		-0.3112974243164062	5.8504833984375	0		
0.01043344783782959	-0.006171995162963867	0		0.4675166320800781	-2.41363623046875	0		-0.9477122802734375	0.29797073364257814	0		-0.5114870300292969	-2.514313232421875	0		1.7191041259765625	-0.9934964599609375	0		3.27301708984375	-0.38027383422851563	0		4.5135048828125	-0.12508123779296876	0		5.9053271484375	0.290167236328125	0		-0.4498442687988281	5.84447900390625	0		
-0.059293914794921875	0.0021772119998931883	0		0.4803212280273437	-2.443100830078125	0		-0.9434674072265625	0.3016554870605469	0		-0.501303955078125	-2.5037060546875	0		1.739231689453125	-0.9960865478515625	0		3.245203857421875	-0.37947552490234376	0		4.5136923828125	-0.1256076202392578	0		5.9034931640625	0.33244277954101564	0		-0.41632809448242186	5.84986328125	0		
0.021858037948608397	0.003101311922073364	0		0.4734437255859375	-2.43235693359375	0		-0.9292880249023437	0.3042676696777344	0		-0.5000885925292968	-2.482991455078125	0		1.7173009033203126	-0.9982594604492188	0		3.26524365234375	-0.3881263427734375	0		4.50889990234375	-0.11808092498779296	0		5.91071337890625	0.3295253601074219	0		-0.4499508972167969	5.84491162109375	0		
0.0219610538482666	0.002820262908935547	0		0.46961419677734373	-2.41262353515625	0		-0.9372463989257812	0.2961136779785156	0		-0.46109686279296874	-2.481622802734375	0		1.7312740478515625	-1.006763427734375	0		3.259404052734375	-0.38051776123046877	0		4.5059384765625	-0.124565185546875	0		5.91078466796875	0.3285093383789062	0		-0.41549838256835936	5.849326171875	0		
0.01802469062805176	-4.043090045452118E-4	0		0.4963136901855469	-2.44017236328125	0		-0.9471278686523438	0.29699859619140623	0		-0.4900482177734375	-2.472578857421875	0		1.7282835693359375	-1.0100891723632812	0		3.241428466796875	-0.38577923583984375	0		4.50196630859375	-0.1310294647216797	0		5.89587744140625	0.3295897216796875	0		-0.4009769287109375	5.86094921875	0		
